<?xml version="1.0" standalone="no"?>
<!DOCTYPE svg PUBLIC "-//W3C//DTD SVG 20010904//EN"
 "http://www.w3.org/TR/2001/REC-SVG-20010904/DTD/svg10.dtd">
<svg version="1.0" xmlns="http://www.w3.org/2000/svg"
 width="686.000000pt" height="317.000000pt" viewBox="0 0 686.000000 317.000000"
 preserveAspectRatio="xMidYMid meet">
<metadata>
Created by potrace 1.16, written by Peter Selinger 2001-2019
</metadata>
<g transform="translate(0.000000,317.000000) scale(0.100000,-0.100000)"
fill="#000000" stroke="none">
<path d="M2826 2765 c-250 -52 -468 -184 -598 -361 -24 -34 -50 -75 -57 -92
-13 -31 -12 -32 44 -84 91 -83 238 -313 229 -359 -4 -20 8 -43 56 -108 98
-132 132 -200 128 -258 -3 -46 -4 -48 -36 -51 -39 -4 -64 14 -82 59 -16 39
-32 37 -28 -3 3 -28 12 -38 58 -66 65 -39 72 -64 20 -73 l-35 -5 28 -8 c48
-14 27 -37 -48 -51 -65 -11 -92 -31 -111 -80 -18 -47 -14 -72 6 -36 15 28 31
26 84 -9 70 -48 165 -88 272 -117 136 -36 344 -38 478 -5 218 55 387 163 528
340 118 149 172 310 171 512 -1 247 -80 428 -264 606 -122 118 -251 191 -414
236 -95 26 -333 33 -429 13z m256 -466 c118 -25 229 -113 285 -226 26 -53 28
-67 28 -168 0 -100 -3 -115 -28 -166 -37 -77 -117 -155 -197 -193 -60 -29 -73
-31 -170 -31 -99 0 -110 2 -171 32 -251 124 -300 467 -92 652 106 95 217 127
345 100z"/>
<path d="M4463 2743 c-3 -10 -61 -153 -128 -318 -230 -562 -257 -630 -320
-785 -35 -85 -99 -244 -144 -353 -45 -109 -81 -202 -81 -208 0 -5 96 -9 238
-9 l238 0 43 110 43 110 328 0 328 0 42 -110 43 -110 238 0 c148 0 239 4 239
10 0 5 -32 87 -71 182 -108 264 -215 527 -284 698 -35 85 -79 193 -98 240 -19
47 -73 180 -120 295 -47 116 -91 222 -98 238 l-12 27 -209 0 c-190 0 -209 -2
-215 -17z m320 -832 c53 -136 97 -253 97 -260 0 -8 -50 -11 -168 -11 l-167 0
-69 -101 c-37 -55 -70 -98 -73 -95 -6 6 269 716 277 716 4 0 50 -112 103 -249z"/>
<path d="M5304 2747 c-2 -7 -3 -100 -2 -207 l3 -195 228 -3 227 -2 0 -635 0
-635 230 0 230 0 0 609 0 609 -62 11 c-35 6 -97 16 -138 23 -70 12 -49 13 285
18 l360 5 3 208 2 207 -680 0 c-544 0 -682 -3 -686 -13z"/>
<path d="M2050 1425 c30 -33 78 -55 122 -55 45 0 104 -18 123 -36 8 -9 15 -30
15 -47 0 -40 16 -97 32 -120 11 -15 13 -4 13 65 0 46 3 95 7 109 7 23 3 28
-40 49 -35 17 -71 25 -147 29 -55 4 -111 13 -125 20 l-25 14 25 -28z"/>
</g>
</svg>
